<svg xmlns="http://www.w3.org/2000/svg" width="40.681" height="40.681" viewBox="0 0 40.681 40.681">
  <path id="Path_126" data-name="Path 126" d="M6.1,2H38.644a4.068,4.068,0,0,1,4.068,4.068V38.613a4.068,4.068,0,0,1-4.068,4.068H6.1a4.068,4.068,0,0,1-4.068-4.068V6.068A4.068,4.068,0,0,1,6.1,2Zm0,4.068V38.613H38.644V6.068ZM20.608,22.349h3.8v12.2h4.068v-12.2h4.032V18.281H28.474V16.238A2.034,2.034,0,0,1,30.508,14.2h2.034V10.136H30.508a6.1,6.1,0,0,0-6.1,6.1v2.043h-3.8Z" transform="translate(-2.031 -2)" fill-rule="evenodd"/>
</svg>
