<svg xmlns="http://www.w3.org/2000/svg" xmlns:xlink="http://www.w3.org/1999/xlink" width="45.265" height="33.901" viewBox="0 0 45.265 33.901">
  <defs>
    <clipPath id="clip-path">
      <rect id="Rectangle_79" data-name="Rectangle 79" width="45.265" height="33.902" transform="translate(0.198 0.154)" fill="#fff"/>
    </clipPath>
  </defs>
  <g id="Group_76" data-name="Group 76" transform="translate(-0.198 -0.154)" clip-path="url(#clip-path)">
    <path id="Path_498" data-name="Path 498" d="M9.983,23.274a3.356,3.356,0,0,1,0-6.709,3.356,3.356,0,0,1,0,6.709Zm0-5.3a1.943,1.943,0,1,0,1.878,1.942A1.913,1.913,0,0,0,9.983,17.977Z" transform="translate(1.983 4.975)" fill="#262626"/>
    <path id="Path_499" data-name="Path 499" d="M16.234,27.834H5.125a.7.7,0,0,1-.683-.706,6.354,6.354,0,0,1,6.238-6.45,6.354,6.354,0,0,1,6.238,6.45A.7.7,0,0,1,16.234,27.834ZM5.856,26.422H15.5a4.936,4.936,0,0,0-4.824-4.332A4.937,4.937,0,0,0,5.856,26.422Z" transform="translate(1.287 6.221)" fill="#262626"/>
    <path id="Path_500" data-name="Path 500" d="M26.657,23.274A3.356,3.356,0,1,1,29.9,19.919,3.3,3.3,0,0,1,26.657,23.274Zm0-5.3a1.943,1.943,0,1,0,1.878,1.942A1.913,1.913,0,0,0,26.657,17.977Z" transform="translate(7.037 4.975)" fill="#262626"/>
    <path id="Path_501" data-name="Path 501" d="M32.908,27.834H21.8a.7.7,0,0,1-.683-.706,6.241,6.241,0,1,1,12.475,0A.7.7,0,0,1,32.908,27.834ZM22.53,26.422h9.648a4.852,4.852,0,0,0-9.648,0Z" transform="translate(6.341 6.221)" fill="#262626"/>
    <path id="Path_502" data-name="Path 502" d="M43.945,26.813h-7a.706.706,0,0,1,0-1.412h7a.141.141,0,0,0,.129-.077.153.153,0,0,0,0-.154L36.183,10.775a1.311,1.311,0,0,0-1.144-.689H10.62a1.311,1.311,0,0,0-1.144.689L1.585,25.17a.152.152,0,0,0,0,.154.143.143,0,0,0,.129.077h7a.706.706,0,0,1,0,1.412h-7a1.492,1.492,0,0,1-1.309-.778A1.6,1.6,0,0,1,.4,24.475L8.289,10.08a2.67,2.67,0,0,1,2.332-1.4H35.04a2.674,2.674,0,0,1,2.332,1.4l7.892,14.395a1.6,1.6,0,0,1-.008,1.561A1.5,1.5,0,0,1,43.945,26.813Z" transform="translate(0 2.583)" fill="#262626"/>
    <path id="Path_503" data-name="Path 503" d="M27.111,22.922H11.881a.706.706,0,0,1,0-1.412H27.111a.706.706,0,0,1,0,1.412Z" transform="translate(3.334 6.474)" fill="#262626"/>
    <path id="Path_504" data-name="Path 504" d="M18.32,6.863a3.3,3.3,0,0,1-3.244-3.354,3.246,3.246,0,1,1,6.488,0A3.3,3.3,0,0,1,18.32,6.863Zm0-5.3a1.913,1.913,0,0,0-1.878,1.942,1.879,1.879,0,1,0,3.757,0A1.913,1.913,0,0,0,18.32,1.566Z" transform="translate(4.51 0)" fill="#262626"/>
    <path id="Path_505" data-name="Path 505" d="M24.571,11.423a.7.7,0,0,1-.683-.706,4.875,4.875,0,1,0-9.744,0,.683.683,0,1,1-1.366,0,6.354,6.354,0,0,1,6.238-6.45,6.354,6.354,0,0,1,6.238,6.45A.7.7,0,0,1,24.571,11.423Z" transform="translate(3.814 1.247)" fill="#262626"/>
  </g>
</svg>
