<svg xmlns="http://www.w3.org/2000/svg" xmlns:xlink="http://www.w3.org/1999/xlink" width="30.271" height="42.227" viewBox="0 0 30.271 42.227">
  <defs>
    <clipPath id="clip-path">
      <rect id="Rectangle_80" data-name="Rectangle 80" width="30.271" height="42.227" transform="translate(0.198 0.706)" fill="#fff"/>
    </clipPath>
  </defs>
  <g id="Group_77" data-name="Group 77" transform="translate(-0.198 -0.706)" clip-path="url(#clip-path)">
    <path id="Path_506" data-name="Path 506" d="M11.546,36.783A11.56,11.56,0,0,1,.2,25.048V12.969A.82.82,0,0,1,1,12.135H22.088a.82.82,0,0,1,.806.833v9.141a.806.806,0,1,1-1.612,0V13.8H1.81V25.048a9.917,9.917,0,0,0,9.736,10.068,9.436,9.436,0,0,0,5.963-2.109.789.789,0,0,1,1.131.148.852.852,0,0,1-.143,1.169A11,11,0,0,1,11.546,36.783Z" transform="translate(0 6.151)" fill="#262626"/>
    <path id="Path_507" data-name="Path 507" d="M6.483,30.568a.782.782,0,0,1-.438-.135A8.243,8.243,0,0,1,2.423,23.55V15.395a.806.806,0,1,1,1.612,0V23.55a6.564,6.564,0,0,0,2.887,5.483.851.851,0,0,1,.238,1.153A.8.8,0,0,1,6.483,30.568Z" transform="translate(1.198 7.456)" fill="#262626"/>
    <path id="Path_508" data-name="Path 508" d="M17.626,33.584a7.758,7.758,0,0,1,0-15.507,7.758,7.758,0,0,1,0,15.507Zm0-13.84a6.09,6.09,0,0,0,0,12.173,6.09,6.09,0,0,0,0-12.173Z" transform="translate(5.344 9.349)" fill="#262626"/>
    <path id="Path_509" data-name="Path 509" d="M13.882,28.263a.788.788,0,0,1-.568-.242,5.026,5.026,0,0,1,.434-7.362.787.787,0,0,1,1.131.146.851.851,0,0,1-.141,1.169,3.32,3.32,0,0,0-.288,4.864.853.853,0,0,1,0,1.178A.785.785,0,0,1,13.882,28.263Z" transform="translate(6.306 10.643)" fill="#262626"/>
    <path id="Path_510" data-name="Path 510" d="M14.718,21.207H14.71a.821.821,0,0,1-.8-.832,5.058,5.058,0,0,1,1.417-3.548,4.728,4.728,0,0,1,3.421-1.466h.009a.821.821,0,0,1,.8.832,5.058,5.058,0,0,1-1.417,3.548A4.726,4.726,0,0,1,14.718,21.207Zm3.09-4.036a3.187,3.187,0,0,0-1.347.836,3.353,3.353,0,0,0-.808,1.392A3.188,3.188,0,0,0,17,18.563,3.326,3.326,0,0,0,17.808,17.17Z" transform="translate(7.377 7.887)" fill="#262626"/>
    <path id="Path_511" data-name="Path 511" d="M7.857,19.953a.82.82,0,0,1-.806-.834V8.807a.842.842,0,0,1,.3-.646L15.991.893a.789.789,0,0,1,1.133.121.853.853,0,0,1-.117,1.172L8.663,9.2v9.915A.82.82,0,0,1,7.857,19.953Z" transform="translate(3.688 0)" fill="#262626"/>
  </g>
</svg>
