<svg xmlns="http://www.w3.org/2000/svg" xmlns:xlink="http://www.w3.org/1999/xlink" width="43" height="45" viewBox="0 0 43 45">
  <defs>
    <clipPath id="clip-path">
      <rect id="Rectangle_180" data-name="Rectangle 180" width="41" height="41" transform="translate(0.232 0)" fill="#e6f4d1"/>
    </clipPath>
    <clipPath id="clip-path-2">
      <rect id="Rectangle_188" data-name="Rectangle 188" width="41" height="41" transform="translate(0.232 0)" fill="#fff"/>
    </clipPath>
  </defs>
  <g id="Group_258" data-name="Group 258" transform="translate(-0.232 -3483)">
    <g id="Group_245" data-name="Group 245" transform="translate(2 3483)" clip-path="url(#clip-path)">
      <path id="Path_582" data-name="Path 582" d="M38.923,37.487H2.726A2.555,2.555,0,0,1,.2,34.912V4.332A2.555,2.555,0,0,1,2.726,1.756h36.2A2.555,2.555,0,0,1,41.45,4.332V34.912A2.553,2.553,0,0,1,38.923,37.487ZM2.726,3.324a1,1,0,0,0-.99,1.008V34.912a1,1,0,0,0,.99,1.008h36.2a1,1,0,0,0,.99-1.008V4.332a1,1,0,0,0-.99-1.008Z" transform="translate(-0.324 0.406)" fill="#e6f4d1"/>
      <path id="Path_583" data-name="Path 583" d="M31.052,26.009H5.768a2.555,2.555,0,0,1-2.528-2.575V12.88A2.555,2.555,0,0,1,5.768,10.3H31.052A2.555,2.555,0,0,1,33.58,12.88V23.434A2.555,2.555,0,0,1,31.052,26.009ZM5.768,11.871a1,1,0,0,0-.99,1.008V23.433a1,1,0,0,0,.99,1.008H31.052a1,1,0,0,0,.99-1.008V12.879a1,1,0,0,0-.99-1.008Z" transform="translate(2.09 7.191)" fill="#e6f4d1"/>
      <path id="Path_584" data-name="Path 584" d="M31.052,10.642H5.768A2.555,2.555,0,0,1,3.239,8.067V7.488A2.555,2.555,0,0,1,5.768,4.913H31.052A2.555,2.555,0,0,1,33.58,7.488v.579A2.555,2.555,0,0,1,31.052,10.642ZM5.768,6.479a1,1,0,0,0-.99,1.008v.579a1,1,0,0,0,.99,1.008H31.052a1,1,0,0,0,.99-1.008V7.487a1,1,0,0,0-.99-1.008Z" transform="translate(2.09 2.911)" fill="#e6f4d1"/>
      <path id="Path_585" data-name="Path 585" d="M9.982,25.6H3.146a.777.777,0,0,1-.769-.784V21.587a.777.777,0,0,1,.769-.784H9.981a.777.777,0,0,1,.769.784v3.233A.775.775,0,0,1,9.982,25.6ZM3.916,24.037h5.3V22.371h-5.3Z" transform="translate(1.406 15.523)" fill="#e6f4d1"/>
      <path id="Path_586" data-name="Path 586" d="M23.953,25.6H17.119a.777.777,0,0,1-.769-.784V21.587a.777.777,0,0,1,.769-.784h6.834a.777.777,0,0,1,.769.784v3.233A.777.777,0,0,1,23.953,25.6Zm-6.066-1.567h5.3V22.371h-5.3Z" transform="translate(12.495 15.523)" fill="#e6f4d1"/>
      <path id="Path_587" data-name="Path 587" d="M9.982,4.337H3.146a.777.777,0,0,1-.769-.784V1.264A.777.777,0,0,1,3.146.48H9.981a.777.777,0,0,1,.769.784V3.553A.775.775,0,0,1,9.982,4.337ZM3.916,2.769h5.3V2.047h-5.3Z" transform="translate(1.406 -0.607)" fill="#e6f4d1"/>
      <path id="Path_588" data-name="Path 588" d="M23.953,4.337H17.119a.777.777,0,0,1-.769-.784V1.264A.777.777,0,0,1,17.119.48h6.834a.777.777,0,0,1,.769.784V3.553A.777.777,0,0,1,23.953,4.337ZM17.887,2.769h5.3V2.047h-5.3Z" transform="translate(12.495 -0.607)" fill="#e6f4d1"/>
    </g>
    <g id="Group_257" data-name="Group 257" transform="translate(0 3487)" clip-path="url(#clip-path-2)">
      <path id="Path_618" data-name="Path 618" d="M38.923,37.487H2.726A2.555,2.555,0,0,1,.2,34.912V4.332A2.555,2.555,0,0,1,2.726,1.756h36.2A2.555,2.555,0,0,1,41.45,4.332V34.912A2.553,2.553,0,0,1,38.923,37.487ZM2.726,3.324a1,1,0,0,0-.99,1.008V34.912a1,1,0,0,0,.99,1.008h36.2a1,1,0,0,0,.99-1.008V4.332a1,1,0,0,0-.99-1.008Z" transform="translate(-0.324 0.406)" fill="#262626"/>
      <path id="Path_619" data-name="Path 619" d="M31.052,26.009H5.768a2.555,2.555,0,0,1-2.528-2.575V12.88A2.555,2.555,0,0,1,5.768,10.3H31.052A2.555,2.555,0,0,1,33.58,12.88V23.434A2.555,2.555,0,0,1,31.052,26.009ZM5.768,11.871a1,1,0,0,0-.99,1.008V23.433a1,1,0,0,0,.99,1.008H31.052a1,1,0,0,0,.99-1.008V12.879a1,1,0,0,0-.99-1.008Z" transform="translate(2.09 7.191)" fill="#262626"/>
      <path id="Path_620" data-name="Path 620" d="M31.052,10.642H5.768A2.555,2.555,0,0,1,3.239,8.067V7.488A2.555,2.555,0,0,1,5.768,4.913H31.052A2.555,2.555,0,0,1,33.58,7.488v.579A2.555,2.555,0,0,1,31.052,10.642ZM5.768,6.479a1,1,0,0,0-.99,1.008v.579a1,1,0,0,0,.99,1.008H31.052a1,1,0,0,0,.99-1.008V7.487a1,1,0,0,0-.99-1.008Z" transform="translate(2.09 2.911)" fill="#262626"/>
      <path id="Path_621" data-name="Path 621" d="M9.982,25.6H3.146a.777.777,0,0,1-.769-.784V21.587a.777.777,0,0,1,.769-.784H9.981a.777.777,0,0,1,.769.784v3.233A.775.775,0,0,1,9.982,25.6ZM3.916,24.037h5.3V22.371h-5.3Z" transform="translate(1.406 15.523)" fill="#262626"/>
      <path id="Path_622" data-name="Path 622" d="M23.953,25.6H17.119a.777.777,0,0,1-.769-.784V21.587a.777.777,0,0,1,.769-.784h6.834a.777.777,0,0,1,.769.784v3.233A.777.777,0,0,1,23.953,25.6Zm-6.066-1.567h5.3V22.371h-5.3Z" transform="translate(12.495 15.523)" fill="#262626"/>
      <path id="Path_623" data-name="Path 623" d="M9.982,4.337H3.146a.777.777,0,0,1-.769-.784V1.264A.777.777,0,0,1,3.146.48H9.981a.777.777,0,0,1,.769.784V3.553A.775.775,0,0,1,9.982,4.337ZM3.916,2.769h5.3V2.047h-5.3Z" transform="translate(1.406 -0.607)" fill="#262626"/>
      <path id="Path_624" data-name="Path 624" d="M23.953,4.337H17.119a.777.777,0,0,1-.769-.784V1.264A.777.777,0,0,1,17.119.48h6.834a.777.777,0,0,1,.769.784V3.553A.777.777,0,0,1,23.953,4.337ZM17.887,2.769h5.3V2.047h-5.3Z" transform="translate(12.495 -0.607)" fill="#262626"/>
    </g>
  </g>
</svg>
