<svg xmlns="http://www.w3.org/2000/svg" xmlns:xlink="http://www.w3.org/1999/xlink" width="46.605" height="48.193" viewBox="0 0 46.605 48.193">
  <defs>
    <clipPath id="clip-path">
      <rect id="Rectangle_78" data-name="Rectangle 78" width="46.605" height="48.193" transform="translate(0.198 0.29)" fill="#fff"/>
    </clipPath>
  </defs>
  <g id="Group_75" data-name="Group 75" transform="translate(-0.198 -0.29)" clip-path="url(#clip-path)">
    <path id="Path_494" data-name="Path 494" d="M23.5,48.483c-12.85,0-23.3-10.809-23.3-24.1S10.651.29,23.5.29,46.8,11.1,46.8,24.387,36.35,48.483,23.5,48.483Zm0-46.053c-11.709,0-21.234,9.85-21.234,21.958S11.792,46.345,23.5,46.345,44.734,36.5,44.734,24.387,35.209,2.43,23.5,2.43Z" transform="translate(0 0)" fill="#262626"/>
    <path id="Path_495" data-name="Path 495" d="M23.5,48.483c-12.85,0-23.3-10.809-23.3-24.1S10.651.29,23.5.29,46.8,11.1,46.8,24.387,36.35,48.483,23.5,48.483Zm0-46.053c-11.709,0-21.234,9.85-21.234,21.958S11.792,46.345,23.5,46.345,44.734,36.5,44.734,24.387,35.209,2.43,23.5,2.43Z" transform="translate(0 0)" fill="#262626"/>
    <path id="Path_496" data-name="Path 496" d="M20.922,24.722H13.294a7.1,7.1,0,0,1-6.969-7.207,7.1,7.1,0,0,1,6.969-7.207h7.628v2.14H13.294a5.07,5.07,0,0,0,0,10.135h7.628Z" transform="translate(5.969 9.762)" fill="#262626"/>
    <path id="Path_497" data-name="Path 497" d="M17.911,21.794H10.283v-2.14h7.628a4.991,4.991,0,0,0,4.9-5.067,4.991,4.991,0,0,0-4.9-5.067H10.283V7.38h7.628a7.1,7.1,0,0,1,6.969,7.207A7.1,7.1,0,0,1,17.911,21.794Z" transform="translate(9.827 6.908)" fill="#262626"/>
  </g>
</svg>
