<svg xmlns="http://www.w3.org/2000/svg" xmlns:xlink="http://www.w3.org/1999/xlink" width="37" height="45.222" viewBox="0 0 37 45.222">
  <defs>
    <clipPath id="clip-path">
      <rect id="Rectangle_58" data-name="Rectangle 58" width="37" height="45.222" transform="translate(0.198)" fill="#fff"/>
    </clipPath>
  </defs>
  <g id="Group_42" data-name="Group 42" transform="translate(-0.198)" clip-path="url(#clip-path)">
    <path id="Path_284" data-name="Path 284" d="M36.48,43.779H.916a.743.743,0,0,1,0-1.485c4.458,0,8.694-3.844,11.926-10.824,3.313-7.154,5.138-16.683,5.138-26.83a.718.718,0,1,1,1.436,0c0,10.147,1.825,19.676,5.138,26.83,3.232,6.981,7.468,10.824,11.926,10.824a.743.743,0,0,1,0,1.485ZM6.036,42.294H31.358c-3.054-1.823-5.834-5.288-8.1-10.183A58.492,58.492,0,0,1,18.7,15.552a58.492,58.492,0,0,1-4.56,16.559C11.87,37.006,9.09,40.471,6.036,42.294Z" transform="translate(0 1.443)" fill="#262626"/>
    <path id="Path_285" data-name="Path 285" d="M32.35,45.222A.718.718,0,0,1,31.7,44.8L11.419,1.063a.753.753,0,0,1,.337-.99.707.707,0,0,1,.958.348L33,44.159a.753.753,0,0,1-.337.99A.707.707,0,0,1,32.35,45.222Z" transform="translate(4.13 0)" fill="#262626"/>
    <path id="Path_286" data-name="Path 286" d="M.916,45.222a.706.706,0,0,1-.31-.073.753.753,0,0,1-.337-.99L20.552.421A.708.708,0,0,1,21.51.073a.753.753,0,0,1,.337.99L1.563,44.8A.716.716,0,0,1,.916,45.222Z" transform="translate(0 0)" fill="#262626"/>
  </g>
</svg>
