<svg xmlns="http://www.w3.org/2000/svg" xmlns:xlink="http://www.w3.org/1999/xlink" width="44" height="44" viewBox="0 0 44 44">
  <defs>
    <clipPath id="clip-path">
      <rect id="Rectangle_187" data-name="Rectangle 187" width="42" height="41" transform="translate(0 0)" fill="#e6f4d1"/>
    </clipPath>
    <clipPath id="clip-path-2">
      <rect id="Rectangle_186" data-name="Rectangle 186" width="42" height="41" transform="translate(0 0)" fill="#fff"/>
    </clipPath>
  </defs>
  <g id="Group_256" data-name="Group 256" transform="translate(0 -3484)">
    <g id="Group_254" data-name="Group 254" transform="translate(2 3484)" clip-path="url(#clip-path)">
      <path id="Path_613" data-name="Path 613" d="M38.416,30.06H33.507V28.524h4.909c1.646,0,2.984-1.031,2.984-2.3V11.2c0-1.268-1.339-2.3-2.984-2.3H5.327c-1.646,0-2.984,1.031-2.984,2.3V26.225c0,1.268,1.338,2.3,2.984,2.3h4.909V30.06H5.327C2.82,30.06.782,28.34.782,26.225V11.2c0-2.115,2.038-3.834,4.545-3.834H38.416c2.505,0,4.545,1.72,4.545,3.834V26.225C42.96,28.34,40.921,30.06,38.416,30.06Z" transform="translate(-0.873 4.802)" fill="#e6f4d1"/>
      <path id="Path_614" data-name="Path 614" d="M26.825,14.017H7.2V3.165A2.584,2.584,0,0,1,9.8.605H24.224a2.584,2.584,0,0,1,2.6,2.56ZM8.758,12.481H25.264V3.165a1.034,1.034,0,0,0-1.041-1.024H9.8A1.034,1.034,0,0,0,8.758,3.165Z" transform="translate(3.986 -0.316)" fill="#e6f4d1"/>
      <path id="Path_615" data-name="Path 615" d="M37.8,12.412H2.834V4.866A2.325,2.325,0,0,1,5.3,2.723h5.982V4.259H5.3c-.484,0-.908.284-.908.607v6.01H36.24V4.866c0-.324-.424-.607-.908-.607H29.35V2.723h5.982A2.325,2.325,0,0,1,37.8,4.866Z" transform="translate(0.681 1.288)" fill="#e6f4d1"/>
      <path id="Path_616" data-name="Path 616" d="M29.719,30.386H7.466a2.53,2.53,0,0,1-2.02-.88,1.51,1.51,0,0,1-.275-1.368L8.646,16.075a2.286,2.286,0,0,1,2.3-1.421h15.3a2.288,2.288,0,0,1,2.3,1.421l3.475,12.062a1.514,1.514,0,0,1-.275,1.368A2.526,2.526,0,0,1,29.719,30.386ZM10.941,16.19a.919.919,0,0,0-.795.3L6.671,28.556a.95.95,0,0,0,.795.294H29.719a.918.918,0,0,0,.8-.3L27.039,16.495a.919.919,0,0,0-.795-.3h-15.3Z" transform="translate(2.405 10.325)" fill="#e6f4d1"/>
      <path id="Path_617" data-name="Path 617" d="M31.475,14.683H6.881a2.5,2.5,0,1,1,0-5.006H31.475a2.5,2.5,0,1,1,0,5.006ZM6.881,11.213a.968.968,0,1,0,0,1.935H31.475a.968.968,0,1,0,0-1.935Z" transform="translate(1.819 6.555)" fill="#e6f4d1"/>
    </g>
    <g id="Group_253" data-name="Group 253" transform="translate(0 3487)" clip-path="url(#clip-path-2)">
      <path id="Path_608" data-name="Path 608" d="M38.416,30.06H33.507V28.524h4.909c1.646,0,2.984-1.031,2.984-2.3V11.2c0-1.268-1.339-2.3-2.984-2.3H5.327c-1.646,0-2.984,1.031-2.984,2.3V26.225c0,1.268,1.338,2.3,2.984,2.3h4.909V30.06H5.327C2.82,30.06.782,28.34.782,26.225V11.2c0-2.115,2.038-3.834,4.545-3.834H38.416c2.505,0,4.545,1.72,4.545,3.834V26.225C42.96,28.34,40.921,30.06,38.416,30.06Z" transform="translate(-0.873 4.802)" fill="#262626"/>
      <path id="Path_609" data-name="Path 609" d="M26.825,14.017H7.2V3.165A2.584,2.584,0,0,1,9.8.605H24.224a2.584,2.584,0,0,1,2.6,2.56ZM8.758,12.481H25.264V3.165a1.034,1.034,0,0,0-1.041-1.024H9.8A1.034,1.034,0,0,0,8.758,3.165Z" transform="translate(3.986 -0.316)" fill="#262626"/>
      <path id="Path_610" data-name="Path 610" d="M37.8,12.412H2.834V4.866A2.325,2.325,0,0,1,5.3,2.723h5.982V4.259H5.3c-.484,0-.908.284-.908.607v6.01H36.24V4.866c0-.324-.424-.607-.908-.607H29.35V2.723h5.982A2.325,2.325,0,0,1,37.8,4.866Z" transform="translate(0.681 1.288)" fill="#262626"/>
      <path id="Path_611" data-name="Path 611" d="M29.719,30.386H7.466a2.53,2.53,0,0,1-2.02-.88,1.51,1.51,0,0,1-.275-1.368L8.646,16.075a2.286,2.286,0,0,1,2.3-1.421h15.3a2.288,2.288,0,0,1,2.3,1.421l3.475,12.062a1.514,1.514,0,0,1-.275,1.368A2.526,2.526,0,0,1,29.719,30.386ZM10.941,16.19a.919.919,0,0,0-.795.3L6.671,28.556a.95.95,0,0,0,.795.294H29.719a.918.918,0,0,0,.8-.3L27.039,16.495a.919.919,0,0,0-.795-.3h-15.3Z" transform="translate(2.405 10.325)" fill="#262626"/>
      <path id="Path_612" data-name="Path 612" d="M31.475,14.683H6.881a2.5,2.5,0,1,1,0-5.006H31.475a2.5,2.5,0,1,1,0,5.006ZM6.881,11.213a.968.968,0,1,0,0,1.935H31.475a.968.968,0,1,0,0-1.935Z" transform="translate(1.819 6.555)" fill="#262626"/>
    </g>
  </g>
</svg>
