<svg xmlns="http://www.w3.org/2000/svg" xmlns:xlink="http://www.w3.org/1999/xlink" width="49.998" height="45" viewBox="0 0 49.998 45">
  <defs>
    <clipPath id="clip-path">
      <rect id="Rectangle_182" data-name="Rectangle 182" width="48" height="42" fill="#fff"/>
    </clipPath>
    <clipPath id="clip-path-4">
      <rect id="Rectangle_196" data-name="Rectangle 196" width="48" height="42" fill="#e6f4d1"/>
    </clipPath>
  </defs>
  <g id="Group_516" data-name="Group 516" transform="translate(0 -3483)">
    <g id="Group_247" data-name="Group 247" transform="translate(0 3486.001)" clip-path="url(#clip-path)">
      <path id="Path_593" data-name="Path 593" d="M17.079,29.713a6.116,6.116,0,0,1,0-12.227,6.116,6.116,0,0,1,0,12.227Zm0-10.7A4.594,4.594,0,1,0,21.536,23.6,4.531,4.531,0,0,0,17.079,19.009Z" transform="translate(6.744 12.482)" fill="#262626"/>
      <path id="Path_594" data-name="Path 594" d="M28.215,18.043a.726.726,0,0,1-.523-.222,12.331,12.331,0,0,0-17.8,0,.723.723,0,0,1-1.044,0,.776.776,0,0,1,0-1.076,13.776,13.776,0,0,1,19.892,0,.776.776,0,0,1,0,1.076A.721.721,0,0,1,28.215,18.043Z" transform="translate(5.032 9.091)" fill="#262626"/>
      <path id="Path_595" data-name="Path 595" d="M37.433,15.154a.726.726,0,0,1-.523-.222,21.42,21.42,0,0,0-30.927,0,.723.723,0,0,1-1.044,0,.776.776,0,0,1,0-1.076,22.865,22.865,0,0,1,33.015,0,.776.776,0,0,1,0,1.076A.72.72,0,0,1,37.433,15.154Z" transform="translate(2.376 5.221)" fill="#262626"/>
      <path id="Path_596" data-name="Path 596" d="M47.09,12.083a.726.726,0,0,1-.523-.222,31.074,31.074,0,0,0-44.532-.351.723.723,0,0,1-1.044-.016.777.777,0,0,1,.016-1.076,32.522,32.522,0,0,1,46.605.366.776.776,0,0,1,0,1.076A.729.729,0,0,1,47.09,12.083Z" transform="translate(-0.304 1.107)" fill="#262626"/>
    </g>
    <g id="Group_259" data-name="Group 259" transform="translate(0 3486.001)" clip-path="url(#clip-path)">
      <path id="Path_625" data-name="Path 625" d="M17.079,29.713a6.116,6.116,0,0,1,0-12.227,6.116,6.116,0,0,1,0,12.227Zm0-10.7A4.594,4.594,0,1,0,21.536,23.6,4.531,4.531,0,0,0,17.079,19.009Z" transform="translate(6.744 12.482)" fill="#262626"/>
      <path id="Path_626" data-name="Path 626" d="M28.215,18.043a.726.726,0,0,1-.523-.222,12.331,12.331,0,0,0-17.8,0,.723.723,0,0,1-1.044,0,.776.776,0,0,1,0-1.076,13.776,13.776,0,0,1,19.892,0,.776.776,0,0,1,0,1.076A.721.721,0,0,1,28.215,18.043Z" transform="translate(5.032 9.091)" fill="#262626"/>
      <path id="Path_627" data-name="Path 627" d="M37.433,15.154a.726.726,0,0,1-.523-.222,21.42,21.42,0,0,0-30.927,0,.723.723,0,0,1-1.044,0,.776.776,0,0,1,0-1.076,22.865,22.865,0,0,1,33.015,0,.776.776,0,0,1,0,1.076A.72.72,0,0,1,37.433,15.154Z" transform="translate(2.376 5.221)" fill="#262626"/>
      <path id="Path_628" data-name="Path 628" d="M47.09,12.083a.726.726,0,0,1-.523-.222,31.074,31.074,0,0,0-44.532-.351.723.723,0,0,1-1.044-.016.777.777,0,0,1,.016-1.076,32.522,32.522,0,0,1,46.605.366.776.776,0,0,1,0,1.076A.729.729,0,0,1,47.09,12.083Z" transform="translate(-0.304 1.107)" fill="#262626"/>
    </g>
    <g id="Group_260" data-name="Group 260" transform="translate(0 3486.001)" clip-path="url(#clip-path)">
      <path id="Path_629" data-name="Path 629" d="M17.079,29.713a6.116,6.116,0,0,1,0-12.227,6.116,6.116,0,0,1,0,12.227Zm0-10.7A4.594,4.594,0,1,0,21.536,23.6,4.531,4.531,0,0,0,17.079,19.009Z" transform="translate(6.744 12.482)" fill="#262626"/>
      <path id="Path_630" data-name="Path 630" d="M28.215,18.043a.726.726,0,0,1-.523-.222,12.331,12.331,0,0,0-17.8,0,.723.723,0,0,1-1.044,0,.776.776,0,0,1,0-1.076,13.776,13.776,0,0,1,19.892,0,.776.776,0,0,1,0,1.076A.721.721,0,0,1,28.215,18.043Z" transform="translate(5.032 9.091)" fill="#262626"/>
      <path id="Path_631" data-name="Path 631" d="M37.433,15.154a.726.726,0,0,1-.523-.222,21.42,21.42,0,0,0-30.927,0,.723.723,0,0,1-1.044,0,.776.776,0,0,1,0-1.076,22.865,22.865,0,0,1,33.015,0,.776.776,0,0,1,0,1.076A.72.72,0,0,1,37.433,15.154Z" transform="translate(2.376 5.221)" fill="#262626"/>
      <path id="Path_632" data-name="Path 632" d="M47.09,12.083a.726.726,0,0,1-.523-.222,31.074,31.074,0,0,0-44.532-.351.723.723,0,0,1-1.044-.016.777.777,0,0,1,.016-1.076,32.522,32.522,0,0,1,46.605.366.776.776,0,0,1,0,1.076A.729.729,0,0,1,47.09,12.083Z" transform="translate(-0.304 1.107)" fill="#262626"/>
    </g>
    <g id="Group_263" data-name="Group 263" transform="translate(0 3483)">
      <g id="Group_262" data-name="Group 262" transform="translate(1.998 0)" clip-path="url(#clip-path-4)">
        <path id="Path_637" data-name="Path 637" d="M17.079,29.713a6.116,6.116,0,0,1,0-12.227,6.116,6.116,0,0,1,0,12.227Zm0-10.7A4.594,4.594,0,1,0,21.536,23.6,4.531,4.531,0,0,0,17.079,19.009Z" transform="translate(6.744 12.482)" fill="#e6f4d1"/>
        <path id="Path_638" data-name="Path 638" d="M28.215,18.043a.726.726,0,0,1-.523-.222,12.331,12.331,0,0,0-17.8,0,.723.723,0,0,1-1.044,0,.776.776,0,0,1,0-1.076,13.776,13.776,0,0,1,19.892,0,.776.776,0,0,1,0,1.076A.721.721,0,0,1,28.215,18.043Z" transform="translate(5.032 9.091)" fill="#e6f4d1"/>
        <path id="Path_639" data-name="Path 639" d="M37.433,15.154a.726.726,0,0,1-.523-.222,21.42,21.42,0,0,0-30.927,0,.723.723,0,0,1-1.044,0,.776.776,0,0,1,0-1.076,22.865,22.865,0,0,1,33.015,0,.776.776,0,0,1,0,1.076A.72.72,0,0,1,37.433,15.154Z" transform="translate(2.376 5.221)" fill="#e6f4d1"/>
        <path id="Path_640" data-name="Path 640" d="M47.09,12.083a.726.726,0,0,1-.523-.222,31.074,31.074,0,0,0-44.532-.351.723.723,0,0,1-1.044-.016.777.777,0,0,1,.016-1.076,32.522,32.522,0,0,1,46.605.366.776.776,0,0,1,0,1.076A.729.729,0,0,1,47.09,12.083Z" transform="translate(-0.304 1.107)" fill="#e6f4d1"/>
      </g>
      <g id="Group_261" data-name="Group 261" transform="translate(0 3)" clip-path="url(#clip-path)">
        <path id="Path_633" data-name="Path 633" d="M17.079,29.713a6.116,6.116,0,0,1,0-12.227,6.116,6.116,0,0,1,0,12.227Zm0-10.7A4.594,4.594,0,1,0,21.536,23.6,4.531,4.531,0,0,0,17.079,19.009Z" transform="translate(6.744 12.482)" fill="#262626"/>
        <path id="Path_634" data-name="Path 634" d="M28.215,18.043a.726.726,0,0,1-.523-.222,12.331,12.331,0,0,0-17.8,0,.723.723,0,0,1-1.044,0,.776.776,0,0,1,0-1.076,13.776,13.776,0,0,1,19.892,0,.776.776,0,0,1,0,1.076A.721.721,0,0,1,28.215,18.043Z" transform="translate(5.032 9.091)" fill="#262626"/>
        <path id="Path_635" data-name="Path 635" d="M37.433,15.154a.726.726,0,0,1-.523-.222,21.42,21.42,0,0,0-30.927,0,.723.723,0,0,1-1.044,0,.776.776,0,0,1,0-1.076,22.865,22.865,0,0,1,33.015,0,.776.776,0,0,1,0,1.076A.72.72,0,0,1,37.433,15.154Z" transform="translate(2.376 5.221)" fill="#262626"/>
        <path id="Path_636" data-name="Path 636" d="M47.09,12.083a.726.726,0,0,1-.523-.222,31.074,31.074,0,0,0-44.532-.351.723.723,0,0,1-1.044-.016.777.777,0,0,1,.016-1.076,32.522,32.522,0,0,1,46.605.366.776.776,0,0,1,0,1.076A.729.729,0,0,1,47.09,12.083Z" transform="translate(-0.304 1.107)" fill="#262626"/>
      </g>
    </g>
  </g>
</svg>
