<svg xmlns="http://www.w3.org/2000/svg" xmlns:xlink="http://www.w3.org/1999/xlink" width="40.553" height="41.934" viewBox="0 0 40.553 41.934">
  <defs>
    <clipPath id="clip-path">
      <rect id="Rectangle_77" data-name="Rectangle 77" width="40.553" height="41.934" transform="translate(0.198 0.29)" fill="#fff"/>
    </clipPath>
  </defs>
  <g id="Group_72" data-name="Group 72" transform="translate(-0.198 -0.29)" clip-path="url(#clip-path)">
    <path id="Path_490" data-name="Path 490" d="M14.575,21.083a6.277,6.277,0,0,1-6.163-6.373,6.277,6.277,0,0,1,6.163-6.373,6.277,6.277,0,0,1,6.163,6.373A6.276,6.276,0,0,1,14.575,21.083Zm0-10.883a4.513,4.513,0,0,0,0,9.022,4.513,4.513,0,0,0,0-9.022Z" transform="translate(5.898 5.778)" fill="#262626"/>
    <path id="Path_491" data-name="Path 491" d="M29.46,27.481h-1.8A10.708,10.708,0,0,0,17.147,16.611,10.708,10.708,0,0,0,6.634,27.481h-1.8A12.542,12.542,0,0,1,17.147,14.749,12.542,12.542,0,0,1,29.46,27.481Z" transform="translate(3.328 10.381)" fill="#262626"/>
    <path id="Path_492" data-name="Path 492" d="M20.474,42.224C9.294,42.224.2,32.819.2,21.258S9.294.29,20.474.29,40.751,9.7,40.751,21.258,31.655,42.224,20.474,42.224Zm0-40.073C10.287,2.152,2,10.723,2,21.258s8.288,19.106,18.476,19.106,18.477-8.571,18.477-19.106S30.662,2.152,20.474,2.152Z" transform="translate(0 0)" fill="#262626"/>
    <path id="Path_493" data-name="Path 493" d="M27.81,28.99l-1.264-1.326a12.866,12.866,0,0,0,3.669-9.069A12.545,12.545,0,0,0,17.9,5.859,12.544,12.544,0,0,0,5.583,18.594a12.873,12.873,0,0,0,3.608,9L7.918,28.915A14.755,14.755,0,0,1,3.784,18.594,14.379,14.379,0,0,1,17.9,4a14.378,14.378,0,0,1,14.116,14.6A14.751,14.751,0,0,1,27.81,28.99Z" transform="translate(2.575 2.662)" fill="#262626"/>
  </g>
</svg>
