<svg xmlns="http://www.w3.org/2000/svg" xmlns:xlink="http://www.w3.org/1999/xlink" width="56" height="47" viewBox="0 0 56 47">
  <defs>
    <clipPath id="clip-path">
      <rect id="Rectangle_197" data-name="Rectangle 197" width="50" height="42" transform="translate(0.001 0)" fill="#e6f4d1"/>
    </clipPath>
    <clipPath id="clip-path-2">
      <rect id="Rectangle_181" data-name="Rectangle 181" width="50" height="42" transform="translate(0.001 0)" fill="#fff"/>
    </clipPath>
  </defs>
  <g id="Group_264" data-name="Group 264" transform="translate(-0.001 -3774)">
    <g id="Group_264-2" data-name="Group 264" transform="translate(6 3774)" clip-path="url(#clip-path)">
      <path id="Path_641" data-name="Path 641" d="M33.318,41.1a1.12,1.12,0,0,1-.393-.071.945.945,0,0,1-.633-.87V31.838H5.095A4.713,4.713,0,0,1,.2,27.347V4.977A4.713,4.713,0,0,1,5.095.486H44.936a4.713,4.713,0,0,1,4.9,4.491v22.37a4.713,4.713,0,0,1-4.9,4.491H43.843l-9.8,8.985A1.081,1.081,0,0,1,33.318,41.1ZM5.095,2.369A2.737,2.737,0,0,0,2.25,4.977v22.37a2.737,2.737,0,0,0,2.844,2.608H33.318a.987.987,0,0,1,1.027.941v6.988l8.347-7.654a1.074,1.074,0,0,1,.726-.275h1.518a2.737,2.737,0,0,0,2.844-2.608V4.977a2.737,2.737,0,0,0-2.844-2.608Z" transform="translate(-0.016 0.208)" fill="#e6f4d1"/>
      <path id="Path_642" data-name="Path 642" d="M8.029,14.126A4.6,4.6,0,0,1,3.253,9.746,4.6,4.6,0,0,1,8.029,5.365a4.6,4.6,0,0,1,4.776,4.379A4.6,4.6,0,0,1,8.029,14.126Zm0-6.878a2.62,2.62,0,0,0-2.723,2.5,2.623,2.623,0,0,0,2.723,2.5,2.621,2.621,0,0,0,2.723-2.5A2.622,2.622,0,0,0,8.029,7.248Z" transform="translate(3.824 6.337)" fill="#e6f4d1"/>
      <path id="Path_643" data-name="Path 643" d="M13.857,14.125a4.6,4.6,0,0,1-4.776-4.38,4.6,4.6,0,0,1,4.776-4.379,4.6,4.6,0,0,1,4.776,4.379A4.6,4.6,0,0,1,13.857,14.125Zm0-6.878a2.62,2.62,0,0,0-2.723,2.5,2.621,2.621,0,0,0,2.723,2.5,2.621,2.621,0,0,0,2.723-2.5A2.62,2.62,0,0,0,13.857,7.247Z" transform="translate(11.144 6.337)" fill="#e6f4d1"/>
      <path id="Path_644" data-name="Path 644" d="M19.683,14.125a4.6,4.6,0,0,1-4.778-4.38,4.6,4.6,0,0,1,4.778-4.379,4.6,4.6,0,0,1,4.776,4.379A4.6,4.6,0,0,1,19.683,14.125Zm0-6.878a2.622,2.622,0,0,0-2.724,2.5,2.622,2.622,0,0,0,2.724,2.5,2.62,2.62,0,0,0,2.723-2.5A2.62,2.62,0,0,0,19.683,7.247Z" transform="translate(18.461 6.337)" fill="#e6f4d1"/>
    </g>
    <g id="Group_246" data-name="Group 246" transform="translate(0 3779)" clip-path="url(#clip-path-2)">
      <path id="Path_589" data-name="Path 589" d="M33.318,41.1a1.12,1.12,0,0,1-.393-.071.945.945,0,0,1-.633-.87V31.838H5.095A4.713,4.713,0,0,1,.2,27.347V4.977A4.713,4.713,0,0,1,5.095.486H44.936a4.713,4.713,0,0,1,4.9,4.491v22.37a4.713,4.713,0,0,1-4.9,4.491H43.843l-9.8,8.985A1.081,1.081,0,0,1,33.318,41.1ZM5.095,2.369A2.737,2.737,0,0,0,2.25,4.977v22.37a2.737,2.737,0,0,0,2.844,2.608H33.318a.987.987,0,0,1,1.027.941v6.988l8.347-7.654a1.074,1.074,0,0,1,.726-.275h1.518a2.737,2.737,0,0,0,2.844-2.608V4.977a2.737,2.737,0,0,0-2.844-2.608Z" transform="translate(-0.016 0.208)" fill="#262626"/>
      <path id="Path_590" data-name="Path 590" d="M8.029,14.126A4.6,4.6,0,0,1,3.253,9.746,4.6,4.6,0,0,1,8.029,5.365a4.6,4.6,0,0,1,4.776,4.379A4.6,4.6,0,0,1,8.029,14.126Zm0-6.878a2.62,2.62,0,0,0-2.723,2.5,2.623,2.623,0,0,0,2.723,2.5,2.621,2.621,0,0,0,2.723-2.5A2.622,2.622,0,0,0,8.029,7.248Z" transform="translate(3.824 6.337)" fill="#262626"/>
      <path id="Path_591" data-name="Path 591" d="M13.857,14.125a4.6,4.6,0,0,1-4.776-4.38,4.6,4.6,0,0,1,4.776-4.379,4.6,4.6,0,0,1,4.776,4.379A4.6,4.6,0,0,1,13.857,14.125Zm0-6.878a2.62,2.62,0,0,0-2.723,2.5,2.621,2.621,0,0,0,2.723,2.5,2.621,2.621,0,0,0,2.723-2.5A2.62,2.62,0,0,0,13.857,7.247Z" transform="translate(11.144 6.337)" fill="#262626"/>
      <path id="Path_592" data-name="Path 592" d="M19.683,14.125a4.6,4.6,0,0,1-4.778-4.38,4.6,4.6,0,0,1,4.778-4.379,4.6,4.6,0,0,1,4.776,4.379A4.6,4.6,0,0,1,19.683,14.125Zm0-6.878a2.622,2.622,0,0,0-2.724,2.5,2.622,2.622,0,0,0,2.724,2.5,2.62,2.62,0,0,0,2.723-2.5A2.62,2.62,0,0,0,19.683,7.247Z" transform="translate(18.461 6.337)" fill="#262626"/>
    </g>
  </g>
</svg>
