<svg xmlns="http://www.w3.org/2000/svg" width="29.407" height="48.527" viewBox="0 0 29.407 48.527">
  <g id="Group_41" data-name="Group 41" transform="translate(-0.198 -0.786)">
    <path id="Path_277" data-name="Path 277" d="M27,43.06H2.8A2.65,2.65,0,0,1,.2,40.37V22.459a14.977,14.977,0,0,1,14.7-15.2,14.978,14.978,0,0,1,14.7,15.2V40.37A2.649,2.649,0,0,1,27,43.06ZM14.9,8.743A13.51,13.51,0,0,0,1.637,22.459V40.37a1.184,1.184,0,0,0,1.162,1.2H27a1.184,1.184,0,0,0,1.162-1.2V22.459A13.51,13.51,0,0,0,14.9,8.743Z" transform="translate(0 2.418)" fill="#262626"/>
    <path id="Path_278" data-name="Path 278" d="M18.742,32.317H7.979a3.724,3.724,0,0,1-3.657-3.781V25.9a3.724,3.724,0,0,1,3.657-3.781H18.742A3.724,3.724,0,0,1,22.4,25.9v2.634A3.725,3.725,0,0,1,18.742,32.317ZM7.979,23.609A2.258,2.258,0,0,0,5.762,25.9v2.634a2.258,2.258,0,0,0,2.217,2.292H18.742a2.258,2.258,0,0,0,2.217-2.292V25.9a2.258,2.258,0,0,0-2.217-2.292Z" transform="translate(1.541 7.973)" fill="#262626"/>
    <path id="Path_279" data-name="Path 279" d="M17.5,20.832H8.062A2.229,2.229,0,0,1,5.874,18.57V17.253A2.229,2.229,0,0,1,8.062,14.99H17.5a2.229,2.229,0,0,1,2.188,2.263V18.57A2.23,2.23,0,0,1,17.5,20.832ZM8.062,16.478a.762.762,0,0,0-.749.774v1.317a.762.762,0,0,0,.749.774H17.5a.762.762,0,0,0,.749-.774V17.252a.762.762,0,0,0-.749-.774Z" transform="translate(2.121 5.308)" fill="#262626"/>
    <path id="Path_280" data-name="Path 280" d="M5.575,37.559a3.423,3.423,0,0,1-3.361-3.475V32.236H8.936v1.848A3.423,3.423,0,0,1,5.575,37.559ZM3.653,33.725v.36a1.957,1.957,0,0,0,1.921,1.987A1.957,1.957,0,0,0,7.5,34.084v-.36Z" transform="translate(0.753 11.753)" fill="#262626"/>
    <path id="Path_281" data-name="Path 281" d="M18.056,37.559A3.423,3.423,0,0,1,14.7,34.084V32.236h6.723v1.848A3.425,3.425,0,0,1,18.056,37.559Zm-1.921-3.835v.36a1.922,1.922,0,1,0,3.843,0v-.36Z" transform="translate(5.418 11.753)" fill="#262626"/>
    <path id="Path_282" data-name="Path 282" d="M19.687,12.035h-1.44V3.359a1,1,0,0,0-.867-1.084H8.18a1,1,0,0,0-.867,1.084v8.677H5.874V3.359A2.455,2.455,0,0,1,8.18.786h9.2a2.454,2.454,0,0,1,2.307,2.573Z" transform="translate(2.121 0)" fill="#262626"/>
    <path id="Path_283" data-name="Path 283" d="M18.771,3.067H6.4V4.556H18.771Z" transform="translate(2.317 0.853)" fill="#262626"/>
  </g>
</svg>
