<svg xmlns="http://www.w3.org/2000/svg" width="40.681" height="40.681" viewBox="0 0 40.681 40.681">
  <path id="Path_125" data-name="Path 125" d="M28.508,0H12.235A12.2,12.2,0,0,0,.031,12.2V28.477a12.2,12.2,0,0,0,12.2,12.2H28.508a12.2,12.2,0,0,0,12.2-12.2V12.2A12.2,12.2,0,0,0,28.508,0ZM4.1,12.2a8.136,8.136,0,0,1,8.136-8.136H28.508A8.136,8.136,0,0,1,36.644,12.2V28.477a8.136,8.136,0,0,1-8.136,8.136H12.235A8.136,8.136,0,0,1,4.1,28.477ZM20.372,30.511a10.17,10.17,0,1,1,10.17-10.17A10.17,10.17,0,0,1,20.372,30.511Zm0-4.068a6.1,6.1,0,1,0-6.1-6.1A6.1,6.1,0,0,0,20.372,26.443Zm12.2-16.272a2.034,2.034,0,1,1-2.034-2.034A2.034,2.034,0,0,1,32.576,10.17Z" transform="translate(-0.031)" fill-rule="evenodd"/>
</svg>
