<svg xmlns="http://www.w3.org/2000/svg" width="40.681" height="40.681" viewBox="0 0 40.681 40.681">
  <path id="Path_127" data-name="Path 127" d="M6.1,2H38.644a4.068,4.068,0,0,1,4.068,4.068V38.613a4.068,4.068,0,0,1-4.068,4.068H6.1a4.068,4.068,0,0,1-4.068-4.068V6.068A4.068,4.068,0,0,1,6.1,2Zm0,4.068V38.613H38.644V6.068Zm18.306,10.17a6.15,6.15,0,0,0-3.148.92l-.92-.92H18.3V30.477h4.068V22.34a2.212,2.212,0,0,1,2.034-2.034H26.44a2.212,2.212,0,0,1,2.034,2.034v8.136h4.068V22.34a6.179,6.179,0,0,0-6.1-6.1ZM14.235,14.2A2.034,2.034,0,1,0,12.2,12.17,2.034,2.034,0,0,0,14.235,14.2ZM12.2,16.238V30.477H16.27V16.238Z" transform="translate(-2.031 -2)" fill-rule="evenodd"/>
</svg>
