<svg xmlns="http://www.w3.org/2000/svg" xmlns:xlink="http://www.w3.org/1999/xlink" width="152" height="60" viewBox="0 0 152 60">
  <defs>
    <clipPath id="clip-path">
      <rect id="Rectangle_17" data-name="Rectangle 17" width="152" height="60" transform="translate(0 0)" fill="#e6f4d1"/>
    </clipPath>
  </defs>
  <g id="Group_9" data-name="Group 9" transform="translate(0 0)" clip-path="url(#clip-path)">
    <path id="Path_1" data-name="Path 1" d="M261.241,53.224a4.672,4.672,0,0,1-4.733-4.7,4.733,4.733,0,1,1,4.733,4.7Z" transform="translate(-169.005 -43.863)" fill="#e6f4d1" fill-rule="evenodd"/>
    <path id="Path_2" data-name="Path 2" d="M225.117,49.821a3.454,3.454,0,0,0-3.469,3.443V67.448c0,8.152,5.96,14.312,14.122,14.312,2.174,0,7.4-1.05,7.4-3.894v-.451h.908v.451c0,5.523,6.483,4.63,6.483.451V53.264a3.469,3.469,0,0,0-6.937,0V67.9c0,3.894-3.577,6.974-7.4,6.974a7.336,7.336,0,0,1-7.639-7.426V53.264A3.453,3.453,0,0,0,225.117,49.821Z" transform="translate(-195.759 -39.263)" fill="#e6f4d1" fill-rule="evenodd"/>
    <path id="Path_3" data-name="Path 3" d="M242.242,69.455a3.39,3.39,0,0,0-3.379,4.5c1.681,5.454,8.044,7.769,13.616,7.769,6.068,0,13.035-2.707,13.035-9.27,0-6.661-6.393-8.76-12.392-9.751-1.918-.324-6.67-1.089-6.67-3.639,0-2.374,3.607-3.2,5.564-3.2,7.46,0,4.742,6.563,9.5,6.563,2.9,0,3.883-2.315,3.28-4.483-1.513-5.4-7.144-8.083-12.768-8.083-5.947,0-12.5,2.864-12.5,9.192,0,6.651,6.244,8.779,12.155,9.819,2.213.392,6.679.736,6.679,3.571,0,2.649-3.676,3.414-5.87,3.414C244.408,75.87,246.719,69.455,242.242,69.455Z" transform="translate(-182.676 -39.229)" fill="#e6f4d1" fill-rule="evenodd"/>
    <path id="Path_4" data-name="Path 4" d="M256.924,49.865a3.443,3.443,0,1,0,0,6.886H260V78.283a3.469,3.469,0,0,0,6.937,0V49.865h-.157a6.792,6.792,0,0,1-3.2.795,6.89,6.89,0,0,1-3.25-.795Z" transform="translate(-171.348 -39.229)" fill="#e6f4d1" fill-rule="evenodd"/>
    <path id="Path_5" data-name="Path 5" d="M313.364,54.391a3.454,3.454,0,0,0-3.468,3.443V72.313c0,3.826-3.883,7.043-7.708,7.043a7.138,7.138,0,0,1-7.262-7.5V57.824a3.469,3.469,0,0,0-6.937,0V71.852c0,8.191,5.81,14.371,14.012,14.469,2.361-.118,7.667-1.207,7.667-3.885v-.451h.91v5.15A10.693,10.693,0,0,1,299.846,97.67c-8.894,0-10.979-8.211-10.979-14.587a3.663,3.663,0,0,0-3.666-3.639h-7.353a2.508,2.508,0,0,1-2.489-2.776V61.356h7.529a3.443,3.443,0,1,0,0-6.886h-4.012a10.975,10.975,0,0,0,1.087-5.14V47.308a3.469,3.469,0,0,0-6.937,0v2.031c0,2.678-.939,5.14-4.021,5.14h-3.637c-4.565,0-4.565,6.886,0,6.886h3.044V77.286c0,4.915,4.546,9.054,9.428,9.054h5.02c0,10.4,7.243,17.549,16.976,17.549a16.916,16.916,0,0,0,16.978-16.676V57.844A3.428,3.428,0,0,0,313.364,54.391Z" transform="translate(-164.833 -43.833)" fill="#e6f4d1" fill-rule="evenodd"/>
    <path id="Path_6" data-name="Path 6" d="M213.453,61.311h-2.985a3.443,3.443,0,1,1,0-6.886h3.568c3.093,0,4.021-2.462,4.021-5.14V47.264a3.474,3.474,0,0,1,6.948,0v2.021a10.85,10.85,0,0,1-1.1,5.14h4.012a3.443,3.443,0,1,1,0,6.886H220.39V76.7a2.508,2.508,0,0,0,2.49,2.776h6.412a3.443,3.443,0,1,1,0,6.886H222.88c-4.882,0-9.428-4.13-9.428-9.054Z" transform="translate(-207 -43.867)" fill="#e6f4d1" fill-rule="evenodd"/>
  </g>
</svg>
