<svg xmlns="http://www.w3.org/2000/svg" width="33.378" height="32.05" viewBox="0 0 33.378 32.05">
  <path id="Path_543" data-name="Path 543" d="M682.38,279.673a1.584,1.584,0,0,1-.733-.183l-8.243-4.333a.787.787,0,0,0-.732,0l-8.243,4.333a1.568,1.568,0,0,1-1.939-.382,1.565,1.565,0,0,1-.345-1.278l1.574-9.178a.787.787,0,0,0-.226-.7l-6.605-6.438a1.662,1.662,0,0,1-.517-1.457,1.569,1.569,0,0,1,1.325-1.291l9.216-1.339a.786.786,0,0,0,.593-.43l4.122-8.351a1.482,1.482,0,0,1,2.822,0L678.57,257a.786.786,0,0,0,.593.43l9.126,1.326a1.663,1.663,0,0,1,1.276.875,1.567,1.567,0,0,1-.313,1.823l-6.669,6.5a.788.788,0,0,0-.226.7l1.574,9.179a1.575,1.575,0,0,1-1.55,1.841Z" transform="translate(-656.349 -247.623)" fill="#f2994a"/>
</svg>
