<svg xmlns="http://www.w3.org/2000/svg" width="44.749" height="32.545" viewBox="0 0 44.749 32.545">
  <path id="Path_128" data-name="Path 128" d="M43.8,32.737c1.39-2.382,1.984-6.223,1.984-12.471,0-6.223-.588-10.041-1.993-12.487C42.38,5.239,40.71,4.433,37.4,4.24,35.134,4.086,29.512,4,23.411,4s-11.739.086-14.018.241c-3.295.193-4.965,1-6.385,3.548-1.384,2.437-1.977,6.275-1.977,12.5,0,6.191.6,10.047,1.989,12.477,1.4,2.514,3.045,3.312,6.368,3.546,2.388.14,8.331.233,14.023.233s11.619-.093,13.985-.231C40.75,36.078,42.393,35.279,43.8,32.737ZM37.14,8.3c2.072.121,2.457.307,3.114,1.5.956,1.656,1.458,4.9,1.458,10.493,0,5.553-.5,8.812-1.453,10.44-.659,1.193-1.041,1.378-3.123,1.524-2.24.131-8.122.223-13.724.223s-11.5-.092-13.762-.224c-2.056-.145-2.444-.333-3.088-1.489C5.606,29.1,5.1,25.819,5.1,20.267s.5-8.809,1.454-10.483C7.208,8.61,7.6,8.421,9.65,8.3c2.172-.147,7.744-.233,13.761-.233S34.985,8.154,37.14,8.3Zm-17.8,5.87,10.17,6.1-10.17,6.1Z" transform="translate(-1.031 -4)" fill-rule="evenodd"/>
</svg>
